<?xml version="1.0" encoding="UTF-8"?>
<svg width="64px" height="64px" viewBox="0 0 24 24" version="1.1" xmlns="http://www.w3.org/2000/svg">
    <g stroke="none" stroke-width="1" fill="none" fill-rule="evenodd">
        <path d="M19,7 C19,5.9 18.1,5 17,5 L14,5 L14,7 L17,7 L17,9.65 L13.52,14 L10,14 L10,7 L6,7 C3.79,7 2,8.79 2,11 L2,17 L4,17 C4,18.66 5.34,20 7,20 C8.66,20 10,18.66 10,17 L15,17 C15,18.66 16.34,20 18,20 C19.66,20 21,18.66 21,17 L23,17 L23,11 L19,7 Z M7,18 C6.45,18 6,17.55 6,17 C6,16.45 6.45,16 7,16 C7.55,16 8,16.45 8,17 C8,17.55 7.55,18 7,18 Z M18,18 C17.45,18 17,17.55 17,17 C17,16.45 17.45,16 18,16 C18.55,16 19,16.45 19,17 C19,17.55 18.55,18 18,18 Z" fill="#2D3748"/>
    </g>
</svg>
